<svg id="Layer_1" data-name="Layer 1" xmlns="http://www.w3.org/2000/svg" viewBox="0 0 207.36 197.89"><defs><style>.cls-1{fill:#e4e4e4;}.cls-1,.cls-2,.cls-3,.cls-4{fill-rule:evenodd;}.cls-2{fill:#1a2e45;}.cls-3{fill:#121721;}.cls-4{fill:#26b1fb;}</style></defs><path class="cls-1" d="M250,291.43c17,0,30.71,1.68,30.71,3.76S267,298.94,250,298.94s-30.71-1.68-30.71-3.75S233,291.43,250,291.43Z" transform="translate(-146.32 -101.06)"/><path class="cls-2" d="M330,189.67a80.12,80.12,0,0,1-23.13,48.66L250,295.19l-56.86-56.86a80.09,80.09,0,0,1-22.44-43.48,60.43,60.43,0,0,0,17.69-1.48,62.75,62.75,0,0,0,123.71-3,55.83,55.83,0,0,1,17.89-.74ZM193.14,124.61A80.41,80.41,0,0,1,330.4,182.73a59.19,59.19,0,0,0-17.67-2.08,62.74,62.74,0,0,0-125.44-1.08,61.31,61.31,0,0,1-17.53,7.15A80.21,80.21,0,0,1,193.14,124.61Z" transform="translate(-146.32 -101.06)"/><path class="cls-3" d="M171.85,200.44a61.83,61.83,0,0,0,17.78-1.84c-.48-1.72-.9-3.46-1.24-5.23a60.43,60.43,0,0,1-17.69,1.48q.48,2.82,1.15,5.59ZM311,196.16a56.58,56.58,0,0,1,18.25-1q.47-2.72.74-5.44a55.83,55.83,0,0,0-17.89.74Q311.68,193.34,311,196.16Z" transform="translate(-146.32 -101.06)"/><path class="cls-4" d="M254.76,213c36.18-6.94,60.17-34,98.92-11.28-16.38-19.6-39.17-20.16-63.78-14.25a60.57,60.57,0,0,1-29.17.05c-31.62-8.55-5.11-47.44,19.48-18.57-7.6-21.11-31.88-26.1-51-16.71-23.79,11.7-41.66,45.57-82.91,38.47,26,14.82,47.29,5.15,63.48-.84,13.49-5,27.27-7.11,29.7,9-11.13-13.87-32-2.44-25,8.91,2.2,3.54,6.94,6.4,13.65,7.15,6.3.7,15,.26,26.58-2Z" transform="translate(-146.32 -101.06)"/></svg>